<svg width="40" height="40" viewBox="0 0 40 40" fill="none" xmlns="http://www.w3.org/2000/svg">
<path d="M35.9375 28.2812C36.8005 28.2812 37.5 27.5817 37.5 26.7188V20.9375C37.5 17.4912 34.6963 14.6875 31.25 14.6875H13.7471V9.17703C13.7471 5.83992 16.5509 3.125 19.9971 3.125C23.4434 3.125 26.2471 5.85867 26.2471 9.21875C26.2471 10.0817 26.9466 10.7812 27.8096 10.7812C28.6726 10.7812 29.3721 10.0817 29.3721 9.21875C29.3721 4.13555 25.1665 0 19.9971 0C14.8277 0 10.6221 4.1168 10.6221 9.17703V14.6875H8.75C5.30375 14.6875 2.5 17.4912 2.5 20.9375V33.75C2.5 37.1963 5.30375 40 8.75 40H31.25C34.6963 40 37.5 37.1963 37.5 33.75C37.5 32.887 36.8005 32.1875 35.9375 32.1875C35.0745 32.1875 34.375 32.887 34.375 33.75C34.375 35.4731 32.9731 36.875 31.25 36.875H8.75C7.02688 36.875 5.625 35.4731 5.625 33.75V20.9375C5.625 19.2144 7.02688 17.8125 8.75 17.8125H31.25C32.9731 17.8125 34.375 19.2144 34.375 20.9375V26.7188C34.375 27.5817 35.0745 28.2812 35.9375 28.2812Z" fill="#118675"/>
<path d="M20 28.6719C20.8629 28.6719 21.5625 27.9723 21.5625 27.1094C21.5625 26.2464 20.8629 25.5469 20 25.5469C19.1371 25.5469 18.4375 26.2464 18.4375 27.1094C18.4375 27.9723 19.1371 28.6719 20 28.6719Z" fill="#118675"/>
</svg>
