<svg width="80" height="80" viewBox="0 0 80 80" fill="none" xmlns="http://www.w3.org/2000/svg">
<mask id="mask0" mask-type="alpha" maskUnits="userSpaceOnUse" x="2" y="10" width="78" height="62">
<path d="M2 10H80V72H2V10Z" fill="white"/>
<path d="M61.83 32.12C61.68 21 52.584 12 41.43 12C36.4733 11.9971 31.6862 13.8043 27.968 17.082C24.6618 19.9937 22.3858 23.8966 21.48 28.208L21.284 28.206C11.754 28.208 4 35.96 4 45.492C4 55.024 11.754 62.776 21.284 62.776H33.356C33.7684 62.7749 34.1635 62.6107 34.4551 62.3191C34.7467 62.0275 34.9109 61.6324 34.912 61.22C34.9109 60.8077 34.7467 60.4125 34.4551 60.1209C34.1635 59.8293 33.7684 59.6651 33.356 59.664H21.284C13.468 59.664 7.11 53.304 7.11 45.49C7.11 37.676 13.47 31.316 21.284 31.316C21.7335 31.3175 22.1826 31.3402 22.63 31.384C23.0291 31.4202 23.4268 31.3015 23.7407 31.0523C24.0546 30.8032 24.2606 30.4429 24.316 30.046C24.8809 25.9318 26.9069 22.158 30.024 19.414C33.174 16.638 37.224 15.108 41.428 15.108C46.0119 15.1154 50.4058 16.9396 53.6471 20.1809C56.8884 23.4222 58.7126 27.8162 58.72 32.4C58.72 32.74 58.694 33.096 58.668 33.468V33.472L58.656 33.632C58.6403 33.8581 58.674 34.0849 58.7548 34.2966C58.8356 34.5083 58.9616 34.6999 59.124 34.858C59.452 35.178 59.904 35.338 60.364 35.29C60.778 35.25 61.196 35.23 61.604 35.23C64.8426 35.2358 67.9469 36.5249 70.237 38.815C72.5271 41.1051 73.8162 44.2094 73.822 47.448C73.8162 50.6866 72.5271 53.7909 70.237 56.081C67.9469 58.3711 64.8426 59.6602 61.604 59.666H48.91C48.4976 59.6671 48.1025 59.8313 47.8109 60.1229C47.5193 60.4145 47.3551 60.8097 47.354 61.222C47.3551 61.6344 47.5193 62.0295 47.8109 62.3211C48.1025 62.6127 48.4976 62.7769 48.91 62.778H61.604C70.056 62.778 76.934 55.902 76.934 47.448C76.934 39.072 70.178 32.242 61.83 32.12ZM41.43 19.314C34.926 19.314 29.358 24.174 28.48 30.62C28.4253 31.0285 28.5345 31.442 28.7837 31.7703C29.0329 32.0986 29.4018 32.3149 29.81 32.372C29.882 32.382 29.95 32.386 30.022 32.386C30.3978 32.3847 30.7604 32.2479 31.0434 32.0006C31.3263 31.7533 31.5105 31.4122 31.562 31.04C31.895 28.6569 33.0762 26.4738 34.8887 24.8912C36.7013 23.3086 39.0238 22.4326 41.43 22.424C41.8424 22.4229 42.2375 22.2587 42.5291 21.9671C42.8207 21.6755 42.9849 21.2804 42.986 20.868C42.9849 20.4557 42.8207 20.0605 42.5291 19.7689C42.2375 19.4773 41.8424 19.3131 41.43 19.312V19.314ZM42.846 44.858L48.506 49.912C48.8125 50.1874 48.9976 50.573 49.0209 50.9844C49.0441 51.3959 48.9036 51.7998 48.63 52.108C48.322 52.452 47.898 52.628 47.47 52.628C47.102 52.628 46.73 52.498 46.434 52.232L42.694 48.892V68.028C42.6929 68.4404 42.5287 68.8355 42.2371 69.1271C41.9455 69.4187 41.5504 69.5829 41.138 69.584C40.7256 69.5829 40.3305 69.4187 40.0389 69.1271C39.7473 68.8355 39.5831 68.4404 39.582 68.028V48.892L35.842 52.232C35.5338 52.5056 35.1299 52.6461 34.7184 52.6229C34.307 52.5996 33.9214 52.4145 33.646 52.108C33.3724 51.7998 33.2319 51.3959 33.2551 50.9844C33.2784 50.573 33.4635 50.1874 33.77 49.912L39.43 44.858C40.406 43.986 41.878 43.986 42.85 44.858H42.846Z" fill="black"/>
</mask>
<g mask="url(#mask0)">
<path d="M61.83 32.1184C61.68 20.9984 52.584 11.9984 41.43 11.9984C36.4733 11.9956 31.6862 13.8027 27.968 17.0804C24.6618 19.9921 22.3858 23.895 21.48 28.2064L21.284 28.2044C11.754 28.2064 4 35.9584 4 45.4904C4 55.0224 11.754 62.7744 21.284 62.7744H33.356C33.7684 62.7734 34.1635 62.6091 34.4551 62.3175C34.7467 62.0259 34.9109 61.6308 34.912 61.2184C34.9109 60.8061 34.7467 60.4109 34.4551 60.1193C34.1635 59.8277 33.7684 59.6635 33.356 59.6624H21.284C13.468 59.6624 7.11 53.3024 7.11 45.4884C7.11 37.6744 13.47 31.3144 21.284 31.3144C21.7335 31.3159 22.1826 31.3386 22.63 31.3824C23.0291 31.4186 23.4268 31.2999 23.7407 31.0508C24.0546 30.8017 24.2606 30.4413 24.316 30.0444C24.8809 25.9302 26.9069 22.1564 30.024 19.4124C33.174 16.6364 37.224 15.1064 41.428 15.1064C46.0119 15.1138 50.4058 16.938 53.6471 20.1793C56.8884 23.4206 58.7126 27.8146 58.72 32.3984C58.72 32.7384 58.694 33.0944 58.668 33.4664V33.4704L58.656 33.6304C58.6403 33.8565 58.674 34.0833 58.7548 34.295C58.8356 34.5067 58.9616 34.6983 59.124 34.8564C59.452 35.1764 59.904 35.3364 60.364 35.2884C60.778 35.2484 61.196 35.2284 61.604 35.2284C64.8426 35.2342 67.9469 36.5233 70.237 38.8134C72.5271 41.1035 73.8162 44.2078 73.822 47.4464C73.8162 50.685 72.5271 53.7894 70.237 56.0794C67.9469 58.3695 64.8426 59.6586 61.604 59.6644H48.91C48.4976 59.6655 48.1025 59.8297 47.8109 60.1213C47.5193 60.4129 47.3551 60.8081 47.354 61.2204C47.3551 61.6328 47.5193 62.0279 47.8109 62.3195C48.1025 62.6111 48.4976 62.7754 48.91 62.7764H61.604C70.056 62.7764 76.934 55.9004 76.934 47.4464C76.934 39.0704 70.178 32.2404 61.83 32.1184ZM41.43 19.3124C34.926 19.3124 29.358 24.1724 28.48 30.6184C28.4253 31.0269 28.5345 31.4404 28.7837 31.7687C29.0329 32.097 29.4018 32.3133 29.81 32.3704C29.882 32.3804 29.95 32.3844 30.022 32.3844C30.3978 32.3832 30.7604 32.2463 31.0434 31.999C31.3263 31.7517 31.5105 31.4106 31.562 31.0384C31.895 28.6553 33.0762 26.4722 34.8887 24.8896C36.7013 23.307 39.0238 22.431 41.43 22.4224C41.8424 22.4214 42.2375 22.2571 42.5291 21.9655C42.8207 21.6739 42.9849 21.2788 42.986 20.8664C42.9849 20.4541 42.8207 20.0589 42.5291 19.7673C42.2375 19.4757 41.8424 19.3115 41.43 19.3104V19.3124ZM42.846 44.8564L48.506 49.9104C48.8125 50.1859 48.9976 50.5714 49.0209 50.9828C49.0441 51.3943 48.9036 51.7982 48.63 52.1064C48.322 52.4504 47.898 52.6264 47.47 52.6264C47.102 52.6264 46.73 52.4964 46.434 52.2304L42.694 48.8904V68.0264C42.6929 68.4388 42.5287 68.8339 42.2371 69.1255C41.9455 69.4171 41.5504 69.5814 41.138 69.5824C40.7256 69.5814 40.3305 69.4171 40.0389 69.1255C39.7473 68.8339 39.5831 68.4388 39.582 68.0264V48.8904L35.842 52.2304C35.5338 52.504 35.1299 52.6445 34.7184 52.6213C34.307 52.598 33.9214 52.413 33.646 52.1064C33.3724 51.7982 33.2319 51.3943 33.2551 50.9828C33.2784 50.5714 33.4635 50.1859 33.77 49.9104L39.43 44.8564C40.406 43.9844 41.878 43.9844 42.85 44.8564H42.846Z" fill="#118675"/>
<path d="M61.8298 32.1169L60.6298 32.1329L60.6458 33.2989L61.8118 33.3189L61.8318 32.1189L61.8298 32.1169ZM27.9678 17.0769L28.7618 17.9769L27.9678 17.0769ZM21.4798 28.2029L21.4658 29.4029L22.4518 29.4129L22.6518 28.4489L21.4778 28.2029H21.4798ZM22.6298 31.3829L22.5178 32.5769L22.6298 31.3829ZM24.3158 30.0429L25.5058 30.2029L24.3178 30.0429H24.3158ZM30.0238 19.4109L30.8178 20.3109L30.0238 19.4109ZM58.6678 33.4649L57.4718 33.3789L58.6678 33.4629V33.4649ZM58.6678 33.4689L59.8638 33.5549L58.6638 33.4709L58.6678 33.4689ZM58.6558 33.6289L57.4598 33.5429V33.5449L58.6558 33.6289ZM59.1238 34.8549L59.9598 33.9949L59.1238 34.8549ZM60.3638 35.2869L60.4838 36.4809H60.4858L60.3658 35.2869H60.3638ZM28.4798 30.6169L27.2918 30.4569L28.4818 30.6169H28.4798ZM29.8098 32.3689L29.6498 33.5589L29.8098 32.3689ZM31.5618 31.0389L30.3738 30.8789L31.5638 31.0389H31.5618ZM42.9858 20.8689H41.7858H42.9858ZM48.5058 49.9129L49.3058 49.0169L48.5058 49.9129ZM42.8458 44.8589L42.0458 45.7529L42.8458 44.8589ZM48.6258 52.1089L49.5218 52.9089L48.6258 52.1089ZM46.4298 52.2329L47.2298 51.3389L46.4298 52.2329ZM42.6898 48.8929L43.4898 47.9969L41.4898 46.2109V48.8909H42.6898V48.8929ZM39.5798 48.8929H40.7798V46.2129L38.7798 47.9989L39.5798 48.8929ZM35.8398 52.2329L36.6398 53.1269L35.8398 52.2329ZM33.6438 52.1089L32.7478 52.9089L33.6418 52.1089H33.6438ZM33.7678 49.9129L34.5678 50.8069L33.7678 49.9129ZM39.4278 44.8589L38.6278 43.9629L39.4278 44.8589ZM41.4298 13.1969C51.9298 13.1969 60.4898 21.6689 60.6298 32.1329L63.0298 32.0989C62.8698 20.3249 53.2418 10.7989 41.4298 10.7989V13.1989V13.1969ZM28.7598 17.9809C32.259 14.8954 36.7646 13.1941 41.4298 13.1969V10.7969C36.1815 10.7944 31.1128 12.7083 27.1758 16.1789L28.7638 17.9789L28.7598 17.9809ZM22.6538 28.4529C23.5062 24.3949 25.6482 20.7215 28.7598 17.9809L27.1738 16.1809C23.6737 19.2639 21.2645 23.3962 20.3058 27.9609L22.6558 28.4529H22.6538ZM21.2838 29.4049H21.4638L21.4898 27.0049L21.2818 27.0029V29.4029L21.2838 29.4049ZM5.1998 45.4889C5.1998 36.6209 12.4158 29.4049 21.2838 29.4049V27.0049C11.0898 27.0049 2.7998 35.2969 2.7998 45.4889H5.1998ZM21.2838 61.5729C12.4158 61.5729 5.1998 54.3569 5.1998 45.4889H2.7998C2.7998 55.6829 11.0918 63.9729 21.2838 63.9729V61.5729ZM33.3558 61.5729H21.2838V63.9729H33.3558V61.5729ZM33.7118 61.2169C33.7118 61.4129 33.5518 61.5729 33.3558 61.5729V63.9729C34.0864 63.9718 34.7868 63.6811 35.3034 63.1645C35.82 62.6479 36.1107 61.9475 36.1118 61.2169H33.7118ZM33.3558 60.8609C33.5518 60.8609 33.7118 61.0209 33.7118 61.2169H36.1118C36.1107 60.4863 35.82 59.7859 35.3034 59.2693C34.7868 58.7526 34.0864 58.4619 33.3558 58.4609V60.8609ZM21.2838 60.8609H33.3558V58.4609H21.2838V60.8609ZM5.9098 45.4869C5.9098 53.9669 12.8058 60.8609 21.2838 60.8609V58.4609C14.1318 58.4609 8.3098 52.6409 8.3098 45.4869H5.9098ZM21.2838 30.1129C12.8038 30.1129 5.9098 37.0089 5.9098 45.4869H8.3098C8.3098 38.3349 14.1298 32.5129 21.2838 32.5129V30.1129ZM22.7438 30.1869C22.2592 30.1394 21.7727 30.1147 21.2858 30.1129V32.5129C21.6578 32.5129 22.0598 32.5329 22.5198 32.5769L22.7438 30.1869ZM23.1298 29.8809C23.1038 30.0689 22.9338 30.2049 22.7438 30.1869L22.5198 32.5769C23.2271 32.6423 23.9325 32.4324 24.489 31.991C25.0455 31.5495 25.4104 30.9105 25.5078 30.2069L23.1278 29.8809H23.1298ZM29.2338 18.5109C25.9004 21.4454 23.7338 25.4811 23.1298 29.8809L25.5098 30.2049C26.0356 26.3762 27.9211 22.8645 30.8218 20.3109L29.2358 18.5109H29.2338ZM41.4338 13.9049C36.9378 13.9049 32.6058 15.5409 29.2338 18.5109L30.8198 20.3109C33.7498 17.7269 37.5198 16.3049 41.4298 16.3049V13.9049H41.4338ZM59.9198 32.3969C59.9124 27.4948 57.9618 22.7956 54.4954 19.3292C51.0291 15.8629 46.3299 13.9123 41.4278 13.9049V16.3049C45.6934 16.3123 49.7822 18.0101 52.7984 21.0263C55.8146 24.0425 57.5124 28.1313 57.5198 32.3969H59.9198ZM59.8638 33.5509C59.8898 33.1869 59.9198 32.7909 59.9198 32.3969H57.5198C57.5198 32.6889 57.4998 32.9969 57.4718 33.3769L59.8658 33.5489L59.8638 33.5509ZM59.8638 33.5529V33.5489L57.4698 33.3789V33.3829L59.8638 33.5509V33.5529ZM59.8518 33.7129L59.8638 33.5529L57.4698 33.3789L57.4578 33.5389L59.8518 33.7129ZM59.9578 33.9929C59.8818 33.9209 59.8438 33.8169 59.8518 33.7129L57.4578 33.5429C57.3978 34.3529 57.7038 35.1489 58.2878 35.7149L59.9578 33.9949V33.9929ZM60.2418 34.0929C60.1358 34.1029 60.0338 34.0669 59.9578 33.9929L58.2858 35.7129C58.8698 36.2789 59.6718 36.5589 60.4798 36.4769L60.2398 34.0889L60.2418 34.0929ZM61.6018 34.0249C61.1518 34.0249 60.6938 34.0489 60.2418 34.0929L60.4818 36.4809C60.854 36.4435 61.2278 36.4248 61.6018 36.4249V34.0249ZM75.0218 47.4449C75.016 43.888 73.6004 40.4784 71.0853 37.9633C68.5702 35.4482 65.1607 34.0327 61.6038 34.0269V36.4269C64.5245 36.4322 67.3241 37.5946 69.3896 39.6597C71.455 41.7248 72.618 44.5242 72.6238 47.4449H75.0238H75.0218ZM61.6018 60.8649C65.1587 60.8591 68.5682 59.4435 71.0833 56.9284C73.5984 54.4133 75.014 51.0038 75.0198 47.4469H72.6198C72.614 50.3676 71.451 53.167 69.3856 55.2321C67.3201 57.2971 64.5205 58.4596 61.5998 58.4649V60.8649H61.6018ZM48.9078 60.8649H61.6018V58.4649H48.9078V60.8649ZM48.5518 61.2209C48.5518 61.0249 48.7118 60.8649 48.9078 60.8649V58.4649C48.1772 58.4659 47.4768 58.7566 46.9602 59.2733C46.4436 59.7899 46.1529 60.4903 46.1518 61.2209H48.5518ZM48.9078 61.5769C48.7118 61.5769 48.5518 61.4169 48.5518 61.2209H46.1518C46.1529 61.9515 46.4436 62.6519 46.9602 63.1685C47.4768 63.6851 48.1772 63.9758 48.9078 63.9769V61.5769ZM61.6018 61.5769H48.9078V63.9769H61.6018V61.5769ZM75.7318 47.4469C75.7318 55.2369 69.3918 61.5769 61.6018 61.5769V63.9769C70.7178 63.9769 78.1318 56.5629 78.1318 47.4469H75.7318ZM61.8118 33.3189C69.5058 33.4309 75.7318 39.7269 75.7318 47.4469H78.1318C78.1318 38.4129 70.8518 31.0469 61.8458 30.9189L61.8118 33.3189ZM29.6678 30.7969C30.0652 27.9567 31.4733 25.3551 33.6337 23.4691C35.7941 21.5831 38.562 20.5392 41.4298 20.5289V18.1289C34.3258 18.1289 28.2298 23.4329 27.2898 30.4729L29.6698 30.7969H29.6678ZM29.9718 31.1969C29.7778 31.1709 29.6418 30.9909 29.6678 30.7969L27.2878 30.4729C27.1904 31.1967 27.384 31.9296 27.8259 32.511C28.2679 33.0925 28.9223 33.475 29.6458 33.5749L29.9698 31.1949L29.9718 31.1969ZM30.0218 31.2009C30.0051 31.2006 29.9884 31.1993 29.9718 31.1969L29.6518 33.5769C29.7758 33.5939 29.9007 33.6026 30.0258 33.6029V31.2029L30.0218 31.2009ZM30.3718 30.8929C30.3478 31.0689 30.1958 31.2009 30.0218 31.2009V33.6009C30.6876 33.5994 31.3304 33.3572 31.8317 32.9191C32.333 32.481 32.6591 31.8765 32.7498 31.2169L30.3698 30.8929H30.3718ZM41.4318 21.2389C38.7352 21.2473 36.1321 22.2283 34.1007 24.0017C32.0694 25.7752 30.746 28.2221 30.3738 30.8929L32.7538 31.2169C33.0477 29.1211 34.0869 27.2015 35.6811 25.8097C37.2752 24.4179 39.3176 23.6472 41.4338 23.6389V21.2389H41.4318ZM41.7878 20.8829C41.7878 21.0789 41.6278 21.2389 41.4318 21.2389V23.6389C42.1624 23.6378 42.8628 23.3471 43.3794 22.8305C43.896 22.3139 44.1867 21.6135 44.1878 20.8829H41.7878ZM41.4318 20.5269C41.6278 20.5269 41.7878 20.6869 41.7878 20.8829H44.1878C44.1867 20.1523 43.896 19.4519 43.3794 18.9353C42.8628 18.4186 42.1624 18.1279 41.4318 18.1269V20.5269ZM49.3038 49.0309L43.6438 43.9769L42.0438 45.7669L47.7038 50.8209L49.3038 49.0309ZM49.5038 52.9209C49.9892 52.3753 50.2386 51.6595 50.1974 50.9304C50.1562 50.2013 49.8277 49.5183 49.2838 49.0309L47.6838 50.8209C47.8298 50.9529 47.8438 51.1769 47.7118 51.3209L49.5018 52.9209H49.5038ZM47.4478 53.8409C48.2018 53.8409 48.9578 53.5309 49.5038 52.9209L47.7138 51.3209C47.6438 51.4009 47.5478 51.4409 47.4478 51.4409V53.8409ZM45.6118 53.1409C46.1378 53.6109 46.7958 53.8409 47.4478 53.8409V51.4409C47.3618 51.4409 47.2798 51.4109 47.2118 51.3509L45.6118 53.1409ZM41.8718 49.8009L45.6118 53.1409L47.2118 51.3509L43.4718 48.0109L41.8718 49.8009ZM43.8718 68.0409V48.9049H41.4718V68.0409H43.8718ZM41.1338 70.7969C41.8644 70.7958 42.5648 70.5051 43.0814 69.9885C43.598 69.4719 43.8887 68.7715 43.8898 68.0409H41.4898C41.4898 68.2369 41.3298 68.3969 41.1338 68.3969V70.7969ZM38.3778 68.0409C38.3789 68.7715 38.6696 69.4719 39.1862 69.9885C39.7028 70.5051 40.4032 70.7958 41.1338 70.7969V68.3969C40.9378 68.3969 40.7778 68.2369 40.7778 68.0409H38.3778ZM38.3778 48.9049V68.0409H40.7778V48.9049H38.3778ZM36.6378 53.1449L40.3778 49.8049L38.7778 48.0149L35.0378 51.3549L36.6378 53.1449ZM32.7478 52.9449C33.2352 53.4887 33.9182 53.8172 34.6474 53.8585C35.3765 53.8997 36.0922 53.6503 36.6378 53.1649L35.0378 51.3749C34.8918 51.5049 34.6658 51.4949 34.5378 51.3469L32.7478 52.9469V52.9449ZM32.9478 49.0549C32.404 49.5423 32.0754 50.2253 32.0342 50.9544C31.993 51.6836 32.2424 52.3993 32.7278 52.9449L34.5178 51.3449C34.3858 51.1989 34.3978 50.9729 34.5458 50.8449L32.9458 49.0549H32.9478ZM38.6078 44.0009L32.9478 49.0549L34.5478 50.8449L40.2078 45.7909L38.6078 44.0009ZM43.6278 44.0009C42.1978 42.7209 40.0378 42.7209 38.6078 44.0009L40.2078 45.7909C40.7278 45.3249 41.5118 45.3269 42.0318 45.7909L43.6318 44.0009H43.6278Z" fill="#118675"/>
</g>
</svg>
