<?xml version="1.0" standalone="no"?>
<!DOCTYPE svg PUBLIC "-//W3C//DTD SVG 1.1//EN" "http://www.w3.org/Graphics/SVG/1.1/DTD/svg11.dtd">
<svg class="icon" height="512" viewBox="0 0 1205 1024" version="1.1" xmlns="http://www.w3.org/2000/svg">
<path d="M76.143444 1023.101991a68.287374 68.287374 0 0 1-66.474435-100.315966L537.838613 36.863096a77.956383 77.956383 0 0 1 132.344558 0l525.752352 886.527242a68.287374 68.287374 0 0 1-66.474436 100.315966z" fill="orange" />
<path d="M548.111935 781.376771c-66.474435 66.474435 40.488974 172.833532 106.359096 106.359097a75.539131 75.539131 0 0 0-106.359096-106.359097z m-21.150957-172.833531a75.539131 75.539131 0 0 0 151.682575 0v-302.156525a75.539131 75.539131 0 0 0-151.682575 0v302.156525z" fill="#020202" />
</svg>